<svg width="24" height="24" viewBox="0 0 24 24" fill="none" xmlns="http://www.w3.org/2000/svg">
<g opacity="0.8">
<path d="M21.4562 10.1551C21.5792 10.8141 21.6462 11.5031 21.6462 12.2221C21.6462 17.846 17.8823 21.8449 12.1974 21.8449C10.9045 21.8453 9.6243 21.591 8.42982 21.0964C7.23533 20.6018 6.15 19.8768 5.23583 18.9626C4.32167 18.0484 3.59659 16.9631 3.10203 15.7686C2.60747 14.5741 2.35312 13.2939 2.35352 12.0011C2.35312 10.7082 2.60747 9.42802 3.10203 8.23353C3.59659 7.03904 4.32167 5.95371 5.23583 5.03954C6.15 4.12538 7.23533 3.4003 8.42982 2.90574C9.6243 2.41118 10.9045 2.15683 12.1974 2.15723C14.8553 2.15723 17.0763 3.13521 18.7803 4.72319L16.0053 7.49814V7.49114C14.9723 6.50716 13.6613 6.00217 12.1974 6.00217C8.94941 6.00217 6.30945 8.74612 6.30945 11.9951C6.30945 15.243 8.94941 17.993 12.1974 17.993C15.1443 17.993 17.1503 16.308 17.5623 13.994H12.1974V10.1551H21.4572H21.4562Z" fill="#0C646D"/>
</g>
</svg>
