<svg width="24" height="24" viewBox="0 0 24 24" fill="none" xmlns="http://www.w3.org/2000/svg">
<g opacity="0.8">
<path fill-rule="evenodd" clip-rule="evenodd" d="M7.4649 1.0671C8.63788 1.0131 9.01187 1.0011 11.9998 1.0011C14.9878 1.0011 15.3618 1.0141 16.5338 1.0671C17.7057 1.1201 18.5057 1.30709 19.2057 1.57809C19.9387 1.85509 20.6037 2.28808 21.1537 2.84807C21.7137 3.39706 22.1457 4.06105 22.4217 4.79504C22.6937 5.49503 22.8797 6.29501 22.9336 7.465C22.9876 8.63998 22.9996 9.01397 22.9996 12.0009C22.9996 14.9889 22.9866 15.3629 22.9336 16.5359C22.8807 17.7058 22.6937 18.5058 22.4217 19.2058C22.1457 19.9399 21.7129 20.605 21.1537 21.1548C20.6037 21.7148 19.9387 22.1468 19.2057 22.4228C18.5057 22.6948 17.7057 22.8807 16.5358 22.9347C15.3618 22.9887 14.9878 23.0007 11.9998 23.0007C9.01187 23.0007 8.63788 22.9877 7.4649 22.9347C6.29492 22.8817 5.49493 22.6948 4.79494 22.4228C4.06087 22.1467 3.39578 21.714 2.84597 21.1548C2.28636 20.6055 1.8533 19.9407 1.57699 19.2068C1.306 18.5068 1.12 17.7068 1.066 16.5368C1.012 15.3619 1 14.9879 1 12.0009C1 9.01297 1.013 8.63898 1.066 7.467C1.119 6.29501 1.306 5.49503 1.57699 4.79504C1.85371 4.06113 2.2871 3.39637 2.84697 2.84707C3.396 2.28758 4.06042 1.85453 4.79394 1.57809C5.49393 1.30709 6.29392 1.1211 7.4639 1.0671H7.4649ZM16.4448 3.04707C15.2848 2.99407 14.9368 2.98307 11.9998 2.98307C9.06287 2.98307 8.71488 2.99407 7.5549 3.04707C6.48191 3.09607 5.89992 3.27506 5.51193 3.42606C4.99894 3.62606 4.63194 3.86305 4.24695 4.24805C3.882 4.60309 3.60114 5.03532 3.42496 5.51303C3.27396 5.90102 3.09497 6.48301 3.04597 7.55599C2.99297 8.71598 2.98197 9.06397 2.98197 12.0009C2.98197 14.9379 2.99297 15.2859 3.04597 16.4459C3.09497 17.5188 3.27396 18.1008 3.42496 18.4888C3.60096 18.9658 3.88195 19.3988 4.24695 19.7538C4.60194 20.1188 5.03494 20.3998 5.51193 20.5758C5.89992 20.7268 6.48191 20.9058 7.5549 20.9548C8.71488 21.0078 9.06187 21.0188 11.9998 21.0188C14.9378 21.0188 15.2848 21.0078 16.4448 20.9548C17.5177 20.9058 18.0997 20.7268 18.4877 20.5758C19.0007 20.3758 19.3677 20.1388 19.7527 19.7538C20.1177 19.3988 20.3987 18.9658 20.5747 18.4888C20.7257 18.1008 20.9047 17.5188 20.9537 16.4459C21.0067 15.2859 21.0177 14.9379 21.0177 12.0009C21.0177 9.06397 21.0067 8.71598 20.9537 7.55599C20.9047 6.48301 20.7257 5.90102 20.5747 5.51303C20.3747 5.00003 20.1377 4.63304 19.7527 4.24805C19.3976 3.88312 18.9654 3.60227 18.4877 3.42606C18.0997 3.27506 17.5177 3.09607 16.4448 3.04707V3.04707ZM10.5948 15.3919C11.3795 15.7185 12.2532 15.7626 13.0667 15.5166C13.8803 15.2706 14.5832 14.7498 15.0554 14.0431C15.5276 13.3365 15.7398 12.4878 15.6558 11.642C15.5718 10.7963 15.1968 10.0059 14.5948 9.40596C14.211 9.02245 13.747 8.72879 13.2361 8.54613C12.7253 8.36346 12.1803 8.29634 11.6403 8.3496C11.1004 8.40285 10.579 8.57515 10.1137 8.8541C9.64832 9.13305 9.25061 9.51171 8.94918 9.96281C8.64774 10.4139 8.45007 10.9262 8.3704 11.4629C8.29073 11.9996 8.33103 12.5472 8.48842 13.0664C8.64581 13.5856 8.91635 14.0635 9.28059 14.4656C9.64482 14.8677 10.0937 15.1841 10.5948 15.3919ZM8.00189 8.00299C8.5269 7.47797 9.15019 7.0615 9.83616 6.77737C10.5221 6.49323 11.2573 6.34699 11.9998 6.34699C12.7423 6.34699 13.4775 6.49323 14.1635 6.77737C14.8495 7.0615 15.4727 7.47797 15.9978 8.00299C16.5228 8.528 16.9392 9.15129 17.2234 9.83726C17.5075 10.5232 17.6538 11.2584 17.6538 12.0009C17.6538 12.7434 17.5075 13.4786 17.2234 14.1646C16.9392 14.8506 16.5228 15.4738 15.9978 15.9989C14.9374 17.0592 13.4993 17.6549 11.9998 17.6549C10.5003 17.6549 9.06221 17.0592 8.00189 15.9989C6.94157 14.9385 6.34589 13.5004 6.34589 12.0009C6.34589 10.5014 6.94157 9.06331 8.00189 8.00299V8.00299ZM18.9077 7.189C19.0378 7.06627 19.142 6.91869 19.214 6.75498C19.2861 6.59128 19.3245 6.41478 19.3271 6.23595C19.3297 6.05711 19.2964 5.87957 19.2292 5.71383C19.162 5.5481 19.0621 5.39754 18.9357 5.27107C18.8092 5.1446 18.6586 5.04479 18.4929 4.97755C18.3272 4.91031 18.1496 4.87701 17.9708 4.87962C17.792 4.88223 17.6155 4.92069 17.4518 4.99273C17.2881 5.06477 17.1405 5.16893 17.0177 5.29903C16.7791 5.55206 16.6484 5.88814 16.6535 6.23595C16.6585 6.58375 16.7989 6.91588 17.0449 7.16184C17.2909 7.4078 17.623 7.54822 17.9708 7.55329C18.3186 7.55836 18.6547 7.42769 18.9077 7.189V7.189Z" fill="#0C646D"/>
</g>
</svg>
