<svg width="24" height="24" viewBox="0 0 24 24" fill="none" xmlns="http://www.w3.org/2000/svg">
<g opacity="0.8" clip-path="url(#clip0_233_127)">
<path d="M18.3343 18.3392H15.6693V14.1623C15.6693 13.1663 15.6493 11.8843 14.2793 11.8843C12.8904 11.8843 12.6784 12.9683 12.6784 14.0893V18.3392H10.0124V9.75038H12.5724V10.9204H12.6074C12.9654 10.2464 13.8353 9.53339 15.1353 9.53339C17.8353 9.53339 18.3353 11.3114 18.3353 13.6243V18.3392H18.3343ZM7.00245 8.5754C6.79901 8.57566 6.59751 8.53577 6.40952 8.45801C6.22153 8.38025 6.05073 8.26614 5.90692 8.12224C5.76311 7.97834 5.64912 7.80747 5.57148 7.61943C5.49384 7.43138 5.45408 7.22987 5.45447 7.02642C5.45467 6.72026 5.54565 6.42104 5.71591 6.16658C5.88617 5.91213 6.12806 5.71388 6.41099 5.5969C6.69392 5.47992 7.00518 5.44947 7.30542 5.50939C7.60566 5.56931 7.88139 5.71692 8.09774 5.93355C8.31409 6.15018 8.46134 6.42609 8.52087 6.72641C8.58041 7.02673 8.54955 7.33795 8.43221 7.62073C8.31486 7.90351 8.1163 8.14515 7.86163 8.31507C7.60695 8.485 7.30761 8.5756 7.00145 8.5754H7.00245ZM8.33843 18.3392H5.66547V9.75038H8.33943V18.3392H8.33843ZM19.6692 3.00049H4.32849C3.5925 3.00049 2.99951 3.58048 2.99951 4.29747V19.7032C2.99951 20.4202 3.5935 21.0002 4.32749 21.0002H19.6652C20.3992 21.0002 20.9992 20.4202 20.9992 19.7032V4.29747C20.9992 3.58048 20.3992 3.00049 19.6652 3.00049H19.6682H19.6692Z" fill="#0C646D"/>
</g>
<defs>
<clipPath id="clip0_233_127">
<rect width="23.9996" height="23.9996" fill="white"/>
</clipPath>
</defs>
</svg>
