<svg width="29" height="28" viewBox="0 0 29 28" fill="none" xmlns="http://www.w3.org/2000/svg">
<g clip-path="url(#clip0_233_38)">
<path d="M21.374 19.3864L26.3708 24.3821L24.72 26.0329L19.7243 21.0361C17.8655 22.5262 15.5535 23.3366 13.1711 23.3333C7.37514 23.3333 2.67114 18.6293 2.67114 12.8333C2.67114 7.03725 7.37514 2.33325 13.1711 2.33325C18.9671 2.33325 23.6711 7.03725 23.6711 12.8333C23.6745 15.2156 22.8641 17.5276 21.374 19.3864ZM19.0336 18.5208C20.5143 16.9981 21.3412 14.9571 21.3378 12.8333C21.3378 8.32059 17.6826 4.66659 13.1711 4.66659C8.65848 4.66659 5.00448 8.32059 5.00448 12.8333C5.00448 17.3448 8.65848 20.9999 13.1711 20.9999C15.295 21.0033 17.336 20.1764 18.8586 18.6958L19.0336 18.5208Z" fill="#222864"/>
</g>
<defs>
<clipPath id="clip0_233_38">
<rect width="28" height="28" fill="white" transform="translate(0.337891)"/>
</clipPath>
</defs>
</svg>
