<svg width="60" height="60" viewBox="0 0 60 60" fill="none" xmlns="http://www.w3.org/2000/svg">
<circle cx="30" cy="30" r="30" fill="#559399"/>
<path d="M35.7697 30.4399L24.8039 37.9115C24.726 37.9644 24.6355 37.9948 24.542 37.9994C24.4486 38.004 24.3556 37.9825 24.2731 37.9374C24.1906 37.8923 24.1217 37.8251 24.0736 37.7431C24.0255 37.661 24 37.5672 24 37.4716V22.5284C24 22.4328 24.0255 22.339 24.0736 22.2569C24.1217 22.1749 24.1906 22.1077 24.2731 22.0626C24.3556 22.0175 24.4486 21.996 24.542 22.0006C24.6355 22.0052 24.726 22.0356 24.8039 22.0885L35.7697 29.5601C35.8405 29.6084 35.8986 29.6738 35.9388 29.7506C35.979 29.8273 36 29.913 36 30C36 30.087 35.979 30.1727 35.9388 30.2494C35.8986 30.3262 35.8405 30.3916 35.7697 30.4399Z" fill="white"/>
</svg>
